<svg xmlns="http://www.w3.org/2000/svg" viewBox="0 0 64 64" width="64" height="64">
  <defs>
    <linearGradient id="fireGrad" x1="0%" y1="100%" x2="100%" y2="0%">
      <stop offset="0%" style="stop-color:#ff4500"/>
      <stop offset="50%" style="stop-color:#ff8c00"/>
      <stop offset="100%" style="stop-color:#ffd700"/>
    </linearGradient>
  </defs>
  <!-- Phoenix wings -->
  <path d="M 8 45 C 5 35 8 20 16 15 C 12 25 14 35 20 40 C 14 30 18 18 28 14 C 22 24 24 34 30 38" fill="url(#fireGrad)" opacity="0.8"/>
  <path d="M 56 45 C 59 35 56 20 48 15 C 52 25 50 35 44 40 C 50 30 46 18 36 14 C 42 24 40 34 34 38" fill="url(#fireGrad)" opacity="0.8"/>
  <!-- Phoenix body/tail -->
  <path d="M 20 40 C 22 50 28 58 32 60 C 36 58 42 50 44 40 C 40 46 36 50 32 52 C 28 50 24 46 20 40Z" fill="url(#fireGrad)"/>
  <!-- Phoenix head -->
  <ellipse cx="32" cy="22" rx="8" ry="9" fill="url(#fireGrad)"/>
  <!-- Eye -->
  <circle cx="32" cy="20" r="2.5" fill="#1a0a2e"/>
  <circle cx="33" cy="19" r="0.8" fill="#fff"/>
  <!-- Beak -->
  <path d="M 38 24 L 44 22 L 38 26Z" fill="#ff8c00"/>
</svg>
